<svg xmlns="http://www.w3.org/2000/svg" width="512" height="512" viewBox="0 0 100 100"><rect width="100" height="100" fill="#FAF3E7"/><g transform="translate(9.498,7.801) scale(0.81004)"><path d="M6.56,43.57C6.35,44.03 6.25,44.48 5.75,45.68C5.25,46.87 5.34,46.61 4.79,47.83C4.24,49.05 4.33,48.77 3.78,50.03C3.24,51.29 3.32,51.01 2.84,52.32C2.36,53.63 2.42,53.35 2.07,54.70C1.72,56.05 1.74,55.77 1.58,57.15C1.42,58.53 1.43,58.24 1.48,59.63C1.53,61.01 1.56,60.72 1.75,62.09C1.94,63.46 1.89,63.17 2.16,64.53C2.43,65.89 2.36,65.60 2.71,66.94C3.05,68.28 2.97,68.00 3.39,69.31C3.81,70.63 3.71,70.35 4.20,71.65C4.69,72.94 4.58,72.66 5.14,73.93C5.70,75.19 5.57,74.92 6.20,76.15C6.83,77.38 6.69,77.12 7.38,78.31C8.07,79.50 7.92,79.25 8.67,80.40C9.43,81.55 9.26,81.31 10.08,82.42C10.89,83.53 10.71,83.30 11.58,84.36C12.45,85.43 12.26,85.20 13.18,86.22C14.10,87.24 13.90,87.02 14.88,87.99C15.85,88.96 15.64,88.75 16.66,89.67C17.67,90.58 17.45,90.39 18.52,91.25C19.58,92.11 19.35,91.94 20.45,92.74C21.55,93.55 21.31,93.38 22.45,94.13C23.60,94.88 23.35,94.73 24.53,95.43C25.71,96.12 25.47,95.98 26.67,96.61C27.87,97.24 27.61,97.10 28.83,97.67C30.05,98.24 29.78,98.13 31.01,98.65C32.25,99.17 31.98,99.07 33.25,99.54C34.51,100.01 34.24,99.92 35.53,100.34C36.82,100.76 36.54,100.67 37.86,101.03C39.17,101.39 38.89,101.33 40.23,101.62C41.56,101.91 41.28,101.86 42.63,102.09C43.99,102.31 43.70,102.27 45.07,102.42C46.44,102.58 46.15,102.55 47.53,102.63C48.91,102.71 48.62,102.70 50.00,102.70C51.38,102.70 51.09,102.71 52.47,102.63C53.85,102.55 53.56,102.58 54.93,102.42C56.30,102.27 56.01,102.31 57.37,102.09C58.72,101.86 58.44,101.91 59.77,101.62C61.11,101.33 60.83,101.39 62.14,101.03C63.46,100.67 63.18,100.76 64.47,100.34C65.76,99.92 65.49,100.01 66.75,99.54C68.02,99.07 67.75,99.17 68.99,98.65C70.22,98.13 69.95,98.24 71.17,97.67C72.39,97.10 72.13,97.24 73.33,96.61C74.53,95.98 74.29,96.12 75.47,95.43C76.65,94.73 76.40,94.88 77.55,94.13C78.69,93.38 78.45,93.55 79.55,92.74C80.65,91.94 80.42,92.11 81.48,91.25C82.55,90.39 82.33,90.58 83.34,89.67C84.36,88.75 84.15,88.96 85.12,87.99C86.10,87.02 85.90,87.24 86.82,86.22C87.74,85.20 87.55,85.43 88.42,84.36C89.29,83.30 89.11,83.53 89.92,82.42C90.74,81.31 90.57,81.55 91.33,80.40C92.08,79.25 91.93,79.50 92.62,78.31C93.31,77.12 93.17,77.38 93.80,76.15C94.43,74.92 94.30,75.19 94.86,73.93C95.42,72.66 95.31,72.94 95.80,71.65C96.29,70.35 96.19,70.63 96.61,69.31C97.03,68.00 96.95,68.28 97.29,66.94C97.64,65.60 97.57,65.89 97.84,64.53C98.11,63.17 98.06,63.46 98.25,62.09C98.44,60.72 98.47,61.01 98.52,59.63C98.57,58.24 98.58,58.53 98.42,57.15C98.26,55.77 98.28,56.05 97.93,54.70C97.58,53.35 97.64,53.63 97.16,52.32C96.68,51.01 96.76,51.29 96.22,50.03C95.67,48.77 95.76,49.05 95.21,47.83C94.66,46.61 94.75,46.87 94.25,45.68C93.75,44.48 93.72,44.28 93.44,43.57C93.15,42.86 93.38,43.36 93.23,43.14C93.08,42.93 93.11,42.96 92.91,42.81C92.70,42.65 92.74,42.67 92.49,42.58C92.25,42.50 92.29,42.51 92.03,42.50C91.77,42.49 91.82,42.49 91.57,42.56C91.32,42.64 91.36,42.62 91.14,42.77C90.93,42.92 90.96,42.89 90.81,43.09C90.65,43.30 90.67,43.26 90.58,43.51C90.50,43.75 90.51,43.71 90.50,43.97C90.49,44.23 90.42,43.71 90.56,44.43C90.71,45.16 90.88,45.36 91.03,46.55C91.18,47.74 91.14,47.49 91.10,48.69C91.05,49.89 91.05,49.65 90.87,50.84C90.69,52.02 90.71,51.78 90.46,52.93C90.20,54.09 90.23,53.84 89.96,54.96C89.69,56.08 89.72,55.84 89.50,56.93C89.27,58.02 89.32,57.78 89.16,58.86C89.01,59.94 89.10,59.71 88.94,60.79C88.79,61.86 88.83,61.64 88.62,62.70C88.41,63.77 88.46,63.54 88.19,64.60C87.92,65.65 87.98,65.43 87.65,66.47C87.32,67.51 87.40,67.29 87.01,68.31C86.62,69.33 86.71,69.11 86.27,70.11C85.83,71.11 85.93,70.90 85.43,71.87C84.93,72.85 85.04,72.64 84.49,73.59C83.94,74.53 84.06,74.34 83.46,75.25C82.86,76.17 83.00,75.98 82.35,76.86C81.70,77.75 81.84,77.56 81.14,78.41C80.45,79.26 80.60,79.08 79.86,79.90C79.12,80.71 79.28,80.54 78.50,81.32C77.72,82.09 77.89,81.93 77.07,82.67C76.25,83.41 76.43,83.25 75.57,83.95C74.71,84.64 74.90,84.50 74.00,85.15C73.11,85.81 73.30,85.67 72.38,86.28C71.45,86.89 71.66,86.76 70.71,87.32C69.76,87.88 69.97,87.76 68.98,88.28C67.99,88.79 68.20,88.68 67.18,89.16C66.15,89.64 66.37,89.55 65.33,89.99C64.29,90.43 64.51,90.34 63.46,90.74C62.41,91.13 62.63,91.05 61.57,91.40C60.51,91.74 60.74,91.67 59.67,91.97C58.60,92.26 58.83,92.20 57.75,92.44C56.68,92.68 56.91,92.63 55.82,92.81C54.74,92.99 54.97,92.96 53.89,93.08C52.80,93.20 53.03,93.18 51.94,93.25C50.86,93.31 51.09,93.30 50.00,93.30C48.91,93.30 49.14,93.31 48.06,93.25C46.97,93.18 47.20,93.20 46.11,93.08C45.03,92.96 45.26,92.99 44.18,92.81C43.09,92.63 43.32,92.68 42.25,92.44C41.17,92.20 41.40,92.26 40.33,91.97C39.26,91.67 39.49,91.74 38.43,91.40C37.37,91.05 37.59,91.13 36.54,90.74C35.49,90.34 35.71,90.43 34.67,89.99C33.63,89.55 33.85,89.64 32.82,89.16C31.80,88.68 32.01,88.79 31.02,88.28C30.03,87.76 30.24,87.88 29.29,87.32C28.34,86.76 28.55,86.89 27.62,86.28C26.70,85.67 26.89,85.81 26.00,85.15C25.10,84.50 25.29,84.64 24.43,83.95C23.57,83.25 23.75,83.41 22.93,82.67C22.11,81.93 22.28,82.09 21.50,81.32C20.72,80.54 20.88,80.71 20.14,79.90C19.40,79.08 19.55,79.26 18.86,78.41C18.16,77.56 18.30,77.75 17.65,76.86C17.00,75.98 17.14,76.17 16.54,75.25C15.94,74.34 16.06,74.53 15.51,73.59C14.96,72.64 15.07,72.85 14.57,71.87C14.07,70.90 14.17,71.11 13.73,70.11C13.29,69.11 13.38,69.33 12.99,68.31C12.60,67.29 12.68,67.51 12.35,66.47C12.02,65.43 12.08,65.65 11.81,64.60C11.54,63.54 11.59,63.77 11.38,62.70C11.17,61.64 11.21,61.86 11.06,60.79C10.90,59.71 10.99,59.94 10.84,58.86C10.68,57.78 10.73,58.02 10.50,56.93C10.28,55.84 10.31,56.08 10.04,54.96C9.77,53.84 9.80,54.09 9.54,52.93C9.29,51.78 9.31,52.02 9.13,50.84C8.95,49.65 8.95,49.89 8.90,48.69C8.86,47.49 8.82,47.74 8.97,46.55C9.12,45.36 9.36,44.91 9.44,44.43C9.51,43.96 9.38,44.64 9.23,44.86C9.08,45.07 9.11,45.04 8.91,45.19C8.70,45.35 8.74,45.33 8.49,45.42C8.25,45.50 8.29,45.49 8.03,45.50C7.77,45.51 7.82,45.51 7.57,45.44C7.32,45.36 7.36,45.38 7.14,45.23C6.93,45.08 6.96,45.11 6.81,44.91C6.65,44.70 6.67,44.74 6.58,44.49C6.50,44.25 6.51,44.29 6.50,44.03C6.49,43.77 6.77,43.11 6.56,43.57Z" fill="#C6551F"/><path d="M49.53,2.17C49.62,2.44 49.70,2.66 49.91,3.28C50.12,3.91 50.07,3.78 50.27,4.41C50.46,5.04 50.42,4.91 50.60,5.54C50.78,6.18 50.74,6.04 50.91,6.69C51.08,7.33 51.05,7.19 51.21,7.83C51.38,8.48 51.34,8.34 51.50,8.99C51.66,9.64 51.62,9.50 51.78,10.15C51.93,10.80 51.90,10.66 52.05,11.31C52.20,11.97 52.17,11.83 52.32,12.48C52.47,13.13 52.44,12.99 52.59,13.65C52.75,14.30 52.71,14.16 52.87,14.81C53.03,15.47 52.99,15.33 53.16,15.98C53.32,16.63 53.29,16.49 53.46,17.14C53.63,17.79 53.59,17.66 53.78,18.30C53.96,18.95 53.92,18.81 54.11,19.46C54.31,20.10 54.26,19.96 54.47,20.60C54.68,21.24 54.63,21.11 54.86,21.74C55.08,22.37 55.03,22.24 55.27,22.86C55.52,23.49 55.46,23.36 55.72,23.98C55.99,24.59 55.93,24.46 56.21,25.07C56.49,25.68 56.43,25.55 56.73,26.15C57.03,26.76 56.96,26.63 57.27,27.23C57.57,27.83 57.51,27.70 57.82,28.30C58.13,28.90 58.06,28.77 58.38,29.36C58.70,29.96 58.63,29.83 58.96,30.42C59.28,31.01 59.21,30.89 59.55,31.48C59.88,32.06 59.81,31.94 60.15,32.52C60.50,33.11 60.42,32.98 60.77,33.56C61.12,34.14 61.08,34.07 61.41,34.59C61.74,35.12 61.75,35.41 61.96,35.44C62.16,35.47 62.12,35.00 62.13,34.71C62.13,34.41 60.95,33.35 61.98,34.38C63.01,35.42 64.51,37.53 65.81,38.39C67.10,39.26 66.19,37.91 66.60,37.47C67.00,37.03 66.87,37.17 67.25,36.83C67.64,36.48 67.55,36.55 67.97,36.25C68.38,35.94 68.29,36.00 68.73,35.74C69.17,35.48 69.08,35.53 69.54,35.32C70.01,35.11 69.91,35.14 70.39,34.98C70.87,34.82 70.77,34.85 71.26,34.74C71.76,34.63 71.66,34.65 72.16,34.59C72.66,34.54 72.56,34.55 73.06,34.55C73.56,34.56 73.46,34.55 73.95,34.61C74.45,34.68 74.35,34.66 74.83,34.78C75.31,34.90 75.21,34.87 75.67,35.05C76.13,35.23 76.04,35.19 76.47,35.43C76.90,35.66 76.82,35.61 77.21,35.90C77.60,36.19 77.52,36.12 77.87,36.46C78.21,36.80 78.15,36.73 78.44,37.10C78.73,37.48 78.67,37.40 78.90,37.81C79.13,38.23 79.09,38.14 79.26,38.57C79.44,39.01 79.41,38.91 79.53,39.36C79.65,39.81 79.63,39.71 79.69,40.17C79.76,40.63 79.75,40.53 79.75,41.00C79.75,41.46 79.76,41.37 79.69,41.83C79.62,42.29 79.64,42.20 79.50,42.65C79.35,43.10 79.39,43.01 79.17,43.43C78.94,43.85 79.00,43.78 78.69,44.15C78.39,44.53 78.46,44.47 78.08,44.78C77.70,45.09 77.78,45.05 77.34,45.27C76.89,45.50 76.98,45.47 76.49,45.60C76.00,45.72 76.09,45.72 75.58,45.72C75.06,45.72 75.15,45.73 74.64,45.60C74.14,45.46 74.22,45.50 73.77,45.23C73.31,44.96 73.38,45.02 73.02,44.62C72.67,44.22 72.71,44.30 72.50,43.81C72.28,43.31 72.29,43.43 72.27,42.86C72.24,42.30 72.38,42.05 72.41,41.80C72.43,41.56 72.40,41.89 72.35,41.98C72.31,42.08 72.32,42.06 72.24,42.14C72.17,42.21 72.19,42.20 72.09,42.25C72.00,42.30 72.02,42.29 71.92,42.31C71.82,42.33 71.83,42.33 71.73,42.32C71.63,42.30 71.64,42.31 71.55,42.26C71.46,42.22 71.47,42.23 71.40,42.15C71.32,42.08 71.33,42.10 71.28,42.00C71.23,41.91 71.24,41.93 71.22,41.83C71.20,41.72 71.27,41.34 71.22,41.64C71.17,41.94 71.03,42.17 71.04,42.90C71.05,43.63 71.03,43.53 71.25,44.26C71.48,44.98 71.43,44.86 71.86,45.50C72.28,46.14 72.19,46.03 72.78,46.54C73.36,47.05 73.24,46.97 73.95,47.32C74.65,47.68 74.51,47.63 75.29,47.81C76.06,47.98 75.91,47.97 76.72,47.96C77.53,47.96 77.37,47.98 78.17,47.80C78.97,47.62 78.82,47.67 79.57,47.32C80.32,46.98 80.18,47.06 80.85,46.56C81.52,46.06 81.40,46.17 81.96,45.55C82.53,44.93 82.43,45.06 82.87,44.33C83.31,43.61 83.24,43.76 83.54,42.96C83.84,42.17 83.79,42.33 83.94,41.49C84.09,40.65 84.08,40.82 84.08,39.97C84.08,39.11 84.09,39.28 83.95,38.44C83.80,37.61 83.84,37.77 83.56,36.97C83.27,36.18 83.34,36.34 82.93,35.60C82.53,34.86 82.62,35.00 82.12,34.33C81.62,33.66 81.73,33.79 81.15,33.20C80.56,32.61 80.69,32.72 80.04,32.21C79.38,31.70 79.52,31.80 78.82,31.38C78.11,30.96 78.26,31.04 77.51,30.71C76.76,30.38 76.91,30.44 76.13,30.20C75.35,29.96 75.51,30.00 74.71,29.86C73.91,29.72 74.07,29.74 73.26,29.69C72.45,29.64 72.62,29.64 71.81,29.68C71.00,29.72 71.17,29.71 70.37,29.84C69.57,29.96 69.74,29.93 68.96,30.14C68.18,30.35 68.34,30.30 67.59,30.59C66.84,30.88 66.99,30.81 66.27,31.18C65.55,31.54 65.70,31.46 65.02,31.89C64.35,32.33 64.49,32.23 63.86,32.72C63.23,33.22 63.30,33.17 62.78,33.66C62.25,34.16 60.98,33.34 61.98,34.49C62.99,35.63 64.78,37.45 66.37,37.75C67.96,38.06 67.48,36.94 67.66,35.57C67.83,34.20 67.36,33.94 66.99,32.86C66.62,31.77 66.67,32.29 66.33,31.68C65.99,31.07 66.08,31.24 65.78,30.68C65.47,30.12 65.54,30.24 65.23,29.67C64.93,29.11 65.00,29.23 64.70,28.66C64.40,28.09 64.47,28.21 64.17,27.64C63.88,27.07 63.94,27.19 63.65,26.62C63.36,26.04 63.42,26.17 63.14,25.59C62.85,25.01 62.91,25.13 62.63,24.56C62.34,23.98 62.40,24.10 62.12,23.52C61.84,22.94 61.90,23.06 61.62,22.48C61.33,21.90 61.39,22.03 61.09,21.45C60.79,20.88 60.86,21.00 60.55,20.43C60.24,19.86 60.30,19.98 59.99,19.41C59.67,18.85 59.73,18.97 59.41,18.40C59.08,17.84 59.15,17.96 58.81,17.40C58.48,16.83 58.55,16.95 58.21,16.39C57.87,15.83 57.95,15.95 57.60,15.39C57.26,14.82 57.34,14.94 56.99,14.38C56.65,13.82 56.72,13.94 56.38,13.37C56.04,12.81 56.11,12.93 55.77,12.36C55.43,11.79 55.50,11.91 55.16,11.34C54.82,10.77 54.89,10.90 54.56,10.32C54.23,9.75 54.30,9.87 53.98,9.29C53.65,8.71 53.72,8.84 53.40,8.26C53.09,7.67 53.16,7.80 52.85,7.21C52.55,6.63 52.61,6.75 52.32,6.16C52.03,5.57 52.09,5.69 51.81,5.09C51.54,4.50 51.59,4.62 51.33,4.02C51.07,3.41 51.13,3.54 50.88,2.93C50.64,2.32 50.58,2.10 50.47,1.83C50.36,1.57 50.50,1.90 50.50,1.98C50.50,2.07 50.50,2.06 50.48,2.14C50.46,2.22 50.46,2.21 50.41,2.28C50.36,2.35 50.37,2.34 50.31,2.40C50.24,2.45 50.25,2.44 50.17,2.47C50.09,2.50 50.10,2.50 50.02,2.50C49.93,2.50 49.94,2.50 49.86,2.48C49.78,2.46 49.79,2.46 49.72,2.41C49.65,2.36 49.66,2.37 49.60,2.31C49.55,2.24 49.44,1.90 49.53,2.17Z" fill="#C6551F"/><path d="M49.53,1.83C49.39,2.18 49.36,2.32 49.12,2.93C48.87,3.54 48.93,3.41 48.67,4.02C48.41,4.62 48.46,4.50 48.19,5.09C47.91,5.69 47.97,5.57 47.68,6.16C47.39,6.75 47.45,6.63 47.15,7.21C46.84,7.80 46.91,7.67 46.60,8.26C46.28,8.84 46.35,8.71 46.02,9.29C45.70,9.87 45.77,9.75 45.44,10.32C45.11,10.90 45.18,10.77 44.84,11.34C44.50,11.91 44.57,11.79 44.23,12.36C43.89,12.93 43.96,12.81 43.62,13.37C43.28,13.94 43.35,13.82 43.01,14.38C42.66,14.94 42.74,14.82 42.40,15.39C42.05,15.95 42.13,15.83 41.79,16.39C41.45,16.95 41.52,16.83 41.19,17.40C40.85,17.96 40.92,17.84 40.59,18.40C40.27,18.97 40.33,18.85 40.01,19.41C39.70,19.98 39.76,19.86 39.45,20.43C39.14,21.00 39.21,20.88 38.91,21.45C38.61,22.03 38.67,21.90 38.38,22.48C38.10,23.06 38.16,22.94 37.88,23.52C37.60,24.10 37.66,23.98 37.37,24.56C37.09,25.13 37.15,25.01 36.86,25.59C36.58,26.17 36.64,26.04 36.35,26.62C36.06,27.19 36.12,27.07 35.83,27.64C35.53,28.21 35.60,28.09 35.30,28.66C35.00,29.23 35.07,29.11 34.77,29.67C34.46,30.24 34.53,30.12 34.22,30.68C33.92,31.24 34.01,31.07 33.67,31.68C33.33,32.29 33.38,31.77 33.01,32.86C32.64,33.94 32.17,34.20 32.34,35.57C32.52,36.94 32.04,38.06 33.63,37.75C35.22,37.45 37.01,35.63 38.02,34.49C39.02,33.34 37.75,34.16 37.22,33.66C36.70,33.17 36.77,33.22 36.14,32.72C35.51,32.23 35.65,32.33 34.98,31.89C34.30,31.46 34.45,31.54 33.73,31.18C33.01,30.81 33.16,30.88 32.41,30.59C31.66,30.30 31.82,30.35 31.04,30.14C30.26,29.93 30.43,29.96 29.63,29.84C28.83,29.71 29.00,29.72 28.19,29.68C27.38,29.64 27.55,29.64 26.74,29.69C25.93,29.74 26.09,29.72 25.29,29.86C24.49,30.00 24.65,29.96 23.87,30.20C23.09,30.44 23.24,30.38 22.49,30.71C21.74,31.04 21.89,30.96 21.18,31.38C20.48,31.80 20.62,31.70 19.96,32.21C19.31,32.72 19.44,32.61 18.85,33.20C18.27,33.79 18.38,33.66 17.88,34.33C17.38,35.00 17.47,34.86 17.07,35.60C16.66,36.34 16.73,36.18 16.44,36.97C16.16,37.77 16.20,37.61 16.05,38.44C15.91,39.28 15.92,39.11 15.92,39.97C15.92,40.82 15.91,40.65 16.06,41.49C16.21,42.33 16.16,42.17 16.46,42.96C16.76,43.76 16.69,43.61 17.13,44.33C17.57,45.06 17.47,44.93 18.04,45.55C18.60,46.17 18.48,46.06 19.15,46.56C19.82,47.06 19.68,46.98 20.43,47.32C21.18,47.67 21.03,47.62 21.83,47.80C22.63,47.98 22.47,47.96 23.28,47.96C24.09,47.97 23.94,47.98 24.71,47.81C25.49,47.63 25.35,47.68 26.05,47.32C26.76,46.97 26.64,47.05 27.22,46.54C27.81,46.03 27.72,46.14 28.14,45.50C28.57,44.86 28.52,44.98 28.75,44.26C28.97,43.53 28.95,43.63 28.96,42.90C28.97,42.17 28.83,41.94 28.78,41.64C28.73,41.34 28.80,41.72 28.78,41.83C28.76,41.93 28.77,41.91 28.72,42.00C28.67,42.10 28.68,42.08 28.60,42.15C28.53,42.23 28.54,42.22 28.45,42.26C28.36,42.31 28.37,42.30 28.27,42.32C28.17,42.33 28.18,42.33 28.08,42.31C27.98,42.29 28.00,42.30 27.91,42.25C27.81,42.20 27.83,42.21 27.76,42.14C27.68,42.06 27.69,42.08 27.65,41.98C27.60,41.89 27.57,41.56 27.59,41.80C27.62,42.05 27.76,42.30 27.73,42.86C27.71,43.43 27.72,43.31 27.50,43.81C27.29,44.30 27.33,44.22 26.98,44.62C26.62,45.02 26.69,44.96 26.23,45.23C25.78,45.50 25.86,45.46 25.36,45.60C24.85,45.73 24.94,45.72 24.42,45.72C23.91,45.72 24.00,45.72 23.51,45.60C23.02,45.47 23.11,45.50 22.66,45.27C22.22,45.05 22.30,45.09 21.92,44.78C21.54,44.47 21.61,44.53 21.31,44.15C21.00,43.78 21.06,43.85 20.83,43.43C20.61,43.01 20.65,43.10 20.50,42.65C20.36,42.20 20.38,42.29 20.31,41.83C20.24,41.37 20.25,41.46 20.25,41.00C20.25,40.53 20.24,40.63 20.31,40.17C20.37,39.71 20.35,39.81 20.47,39.36C20.59,38.91 20.56,39.01 20.74,38.57C20.91,38.14 20.87,38.23 21.10,37.81C21.33,37.40 21.27,37.48 21.56,37.10C21.85,36.73 21.79,36.80 22.13,36.46C22.48,36.12 22.40,36.19 22.79,35.90C23.18,35.61 23.10,35.66 23.53,35.43C23.96,35.19 23.87,35.23 24.33,35.05C24.79,34.87 24.69,34.90 25.17,34.78C25.65,34.66 25.55,34.68 26.05,34.61C26.54,34.55 26.44,34.56 26.94,34.55C27.44,34.55 27.34,34.54 27.84,34.59C28.34,34.65 28.24,34.63 28.74,34.74C29.23,34.85 29.13,34.82 29.61,34.98C30.09,35.14 29.99,35.11 30.46,35.32C30.92,35.53 30.83,35.48 31.27,35.74C31.71,36.00 31.62,35.94 32.03,36.25C32.45,36.55 32.36,36.48 32.75,36.83C33.13,37.17 33.00,37.03 33.40,37.47C33.81,37.91 32.90,39.26 34.19,38.39C35.49,37.53 36.99,35.42 38.02,34.38C39.05,33.35 37.87,34.41 37.87,34.71C37.88,35.00 37.84,35.47 38.04,35.44C38.25,35.41 38.26,35.12 38.59,34.59C38.92,34.07 38.88,34.14 39.23,33.56C39.58,32.98 39.50,33.11 39.85,32.52C40.19,31.94 40.12,32.06 40.45,31.48C40.79,30.89 40.72,31.01 41.04,30.42C41.37,29.83 41.30,29.96 41.62,29.36C41.94,28.77 41.87,28.90 42.18,28.30C42.49,27.70 42.43,27.83 42.73,27.23C43.04,26.63 42.97,26.76 43.27,26.15C43.57,25.55 43.51,25.68 43.79,25.07C44.07,24.46 44.01,24.59 44.28,23.98C44.54,23.36 44.48,23.49 44.73,22.86C44.97,22.24 44.92,22.37 45.14,21.74C45.37,21.11 45.32,21.24 45.53,20.60C45.74,19.96 45.69,20.10 45.89,19.46C46.08,18.81 46.04,18.95 46.22,18.30C46.41,17.66 46.37,17.79 46.54,17.14C46.71,16.49 46.68,16.63 46.84,15.98C47.01,15.33 46.97,15.47 47.13,14.81C47.29,14.16 47.25,14.30 47.41,13.65C47.56,12.99 47.53,13.13 47.68,12.48C47.83,11.83 47.80,11.97 47.95,11.31C48.10,10.66 48.07,10.80 48.22,10.15C48.38,9.50 48.34,9.64 48.50,8.99C48.66,8.34 48.62,8.48 48.79,7.83C48.95,7.19 48.92,7.33 49.09,6.69C49.26,6.04 49.22,6.18 49.40,5.54C49.58,4.91 49.54,5.04 49.73,4.41C49.93,3.78 49.88,3.91 50.09,3.28C50.30,2.66 50.36,2.52 50.47,2.17C50.59,1.81 50.50,2.10 50.50,2.02C50.50,1.93 50.50,1.94 50.48,1.86C50.46,1.78 50.46,1.79 50.41,1.72C50.36,1.65 50.37,1.66 50.31,1.60C50.24,1.55 50.25,1.56 50.17,1.53C50.09,1.50 50.10,1.50 50.02,1.50C49.93,1.50 49.94,1.50 49.86,1.52C49.78,1.54 49.79,1.54 49.72,1.59C49.65,1.64 49.66,1.63 49.60,1.69C49.55,1.76 49.67,1.48 49.53,1.83Z" fill="#C6551F"/></g></svg>