<svg xmlns="http://www.w3.org/2000/svg" width="512" height="512" viewBox="0 0 100 100"><rect width="100" height="100" fill="#FAF3E7"/><g transform="translate(6.329,7.746) scale(0.81943)"><path d="M12.80,43.51C12.55,43.95 12.40,44.37 11.81,45.48C11.21,46.60 11.32,46.35 10.67,47.48C10.02,48.62 10.13,48.36 9.49,49.54C8.84,50.71 8.95,50.45 8.36,51.68C7.78,52.91 7.86,52.65 7.41,53.94C6.95,55.23 7.00,54.95 6.73,56.29C6.46,57.62 6.50,57.35 6.44,58.70C6.38,60.06 6.44,59.77 6.52,61.13C6.61,62.48 6.58,62.20 6.75,63.54C6.92,64.89 6.88,64.60 7.13,65.94C7.38,67.27 7.32,66.99 7.64,68.30C7.97,69.62 7.89,69.34 8.30,70.64C8.70,71.93 8.61,71.66 9.08,72.92C9.56,74.19 9.45,73.93 10.00,75.16C10.55,76.40 10.43,76.14 11.04,77.34C11.66,78.54 11.53,78.29 12.21,79.46C12.90,80.62 12.75,80.38 13.50,81.50C14.25,82.62 14.08,82.39 14.90,83.47C15.71,84.54 15.53,84.32 16.41,85.35C17.28,86.38 17.09,86.16 18.02,87.14C18.95,88.12 18.74,87.92 19.72,88.84C20.70,89.77 20.49,89.57 21.52,90.44C22.55,91.31 22.33,91.13 23.40,91.94C24.47,92.75 24.24,92.58 25.35,93.33C26.47,94.08 26.23,93.93 27.38,94.61C28.53,95.30 28.28,95.16 29.46,95.79C30.65,96.42 30.40,96.29 31.61,96.86C32.83,97.42 32.57,97.30 33.81,97.80C35.04,98.29 34.77,98.19 36.02,98.63C37.26,99.06 36.99,98.97 38.26,99.36C39.52,99.74 39.25,99.66 40.53,99.99C41.81,100.31 41.53,100.25 42.83,100.52C44.12,100.78 43.84,100.73 45.15,100.94C46.46,101.15 46.18,101.11 47.49,101.26C48.81,101.41 48.53,101.38 49.85,101.47C51.17,101.56 50.89,101.55 52.21,101.57C53.54,101.60 53.26,101.60 54.58,101.56C55.91,101.53 55.62,101.54 56.95,101.45C58.27,101.35 57.99,101.38 59.31,101.22C60.62,101.06 60.34,101.10 61.65,100.87C62.96,100.65 62.68,100.71 63.98,100.42C65.28,100.14 65.00,100.21 66.28,99.86C67.56,99.52 67.29,99.60 68.55,99.19C69.82,98.79 69.55,98.88 70.79,98.42C72.04,97.96 71.77,98.06 72.99,97.54C74.21,97.02 73.95,97.14 75.15,96.56C76.34,95.99 76.09,96.11 77.25,95.49C78.42,94.86 78.17,95.00 79.30,94.32C80.44,93.63 80.20,93.78 81.30,93.06C82.40,92.33 82.17,92.49 83.23,91.71C84.30,90.94 84.07,91.11 85.11,90.28C86.15,89.46 85.93,89.65 86.94,88.75C87.95,87.85 87.75,88.05 88.71,87.08C89.67,86.12 89.47,86.33 90.38,85.31C91.28,84.29 91.09,84.51 91.93,83.44C92.77,82.36 92.60,82.59 93.37,81.47C94.14,80.34 93.98,80.59 94.68,79.42C95.38,78.25 95.24,78.50 95.87,77.29C96.49,76.08 96.37,76.34 96.92,75.09C97.46,73.84 97.36,74.11 97.83,72.83C98.30,71.55 98.21,71.82 98.60,70.51C98.98,69.21 98.91,69.49 99.22,68.16C99.53,66.83 99.47,67.11 99.69,65.77C99.92,64.42 99.88,64.71 100.02,63.35C100.16,61.99 100.20,62.28 100.19,60.92C100.18,59.55 100.21,59.83 99.98,58.48C99.75,57.13 99.79,57.41 99.38,56.10C98.96,54.79 99.03,55.06 98.48,53.81C97.93,52.56 98.03,52.83 97.41,51.63C96.79,50.44 96.90,50.70 96.27,49.55C95.64,48.39 95.75,48.64 95.17,47.52C94.59,46.39 94.45,45.97 94.21,45.53C93.97,45.08 94.28,45.70 94.30,45.92C94.31,46.15 94.31,46.11 94.26,46.33C94.20,46.55 94.22,46.51 94.09,46.70C93.97,46.89 94.00,46.86 93.82,47.01C93.65,47.15 93.68,47.13 93.47,47.21C93.26,47.29 93.30,47.28 93.08,47.30C92.85,47.31 92.89,47.31 92.67,47.26C92.45,47.20 92.49,47.22 92.30,47.09C92.11,46.97 92.14,47.00 91.99,46.82C91.85,46.65 91.68,46.00 91.79,46.47C91.90,46.94 92.17,47.35 92.40,48.50C92.63,49.65 92.58,49.41 92.61,50.58C92.64,51.76 92.62,51.52 92.52,52.69C92.41,53.85 92.41,53.61 92.22,54.75C92.03,55.89 92.04,55.65 91.83,56.75C91.62,57.85 91.63,57.61 91.46,58.67C91.28,59.74 91.32,59.50 91.21,60.55C91.10,61.61 91.18,61.38 91.07,62.43C90.96,63.47 90.99,63.25 90.82,64.29C90.64,65.32 90.69,65.10 90.45,66.13C90.21,67.15 90.27,66.94 89.97,67.94C89.67,68.95 89.74,68.74 89.38,69.72C89.02,70.71 89.10,70.50 88.68,71.47C88.25,72.43 88.35,72.23 87.87,73.16C87.39,74.10 87.49,73.90 86.95,74.80C86.42,75.71 86.54,75.52 85.94,76.39C85.35,77.25 85.48,77.07 84.83,77.90C84.19,78.73 84.33,78.56 83.63,79.35C82.93,80.14 83.09,79.98 82.34,80.72C81.60,81.47 81.77,81.31 80.97,82.02C80.17,82.72 80.34,82.57 79.50,83.25C78.65,83.92 78.82,83.79 77.93,84.43C77.05,85.08 77.24,84.95 76.32,85.56C75.41,86.16 75.61,86.04 74.67,86.60C73.73,87.16 73.94,87.05 72.97,87.57C72.01,88.09 72.22,87.98 71.24,88.46C70.25,88.93 70.47,88.83 69.46,89.26C68.46,89.69 68.67,89.60 67.65,89.98C66.63,90.36 66.85,90.29 65.81,90.62C64.77,90.95 65.00,90.89 63.95,91.17C62.89,91.45 63.12,91.40 62.06,91.63C60.99,91.86 61.22,91.82 60.15,92.00C59.07,92.18 59.30,92.15 58.22,92.28C57.14,92.41 57.37,92.39 56.28,92.47C55.20,92.55 55.43,92.54 54.34,92.57C53.25,92.60 53.48,92.60 52.39,92.57C51.30,92.55 51.53,92.56 50.45,92.49C49.36,92.42 49.59,92.44 48.50,92.32C47.42,92.19 47.65,92.23 46.57,92.05C45.49,91.88 45.72,91.92 44.65,91.70C43.58,91.48 43.80,91.53 42.74,91.26C41.68,90.99 41.91,91.06 40.86,90.74C39.81,90.42 40.03,90.49 38.99,90.13C37.96,89.77 38.17,89.85 37.16,89.44C36.15,89.04 36.36,89.14 35.39,88.69C34.41,88.24 34.62,88.34 33.67,87.83C32.72,87.33 32.92,87.44 32.00,86.89C31.07,86.34 31.27,86.46 30.38,85.86C29.48,85.26 29.67,85.40 28.82,84.75C27.96,84.11 28.14,84.25 27.32,83.56C26.50,82.87 26.67,83.02 25.89,82.29C25.12,81.56 25.28,81.72 24.54,80.94C23.81,80.17 23.96,80.34 23.27,79.53C22.58,78.71 22.72,78.89 22.08,78.04C21.44,77.19 21.57,77.38 20.98,76.49C20.38,75.61 20.50,75.80 19.96,74.88C19.42,73.97 19.53,74.16 19.05,73.22C18.56,72.28 18.66,72.48 18.22,71.51C17.79,70.54 17.88,70.75 17.50,69.75C17.13,68.76 17.20,68.97 16.89,67.96C16.57,66.95 16.63,67.16 16.38,66.14C16.12,65.11 16.17,65.33 15.98,64.29C15.78,63.24 15.82,63.47 15.68,62.42C15.55,61.37 15.57,61.59 15.50,60.54C15.43,59.48 15.50,59.71 15.43,58.65C15.36,57.59 15.38,57.83 15.24,56.75C15.10,55.67 15.11,55.91 14.93,54.80C14.75,53.69 14.76,53.93 14.60,52.79C14.44,51.64 14.44,51.88 14.36,50.71C14.28,49.54 14.25,49.77 14.31,48.60C14.37,47.42 14.31,47.66 14.56,46.51C14.81,45.36 15.08,44.96 15.20,44.49C15.32,44.02 15.14,44.67 14.99,44.84C14.85,45.01 14.88,44.99 14.68,45.11C14.49,45.22 14.53,45.21 14.31,45.26C14.09,45.32 14.13,45.31 13.90,45.30C13.68,45.28 13.72,45.29 13.51,45.20C13.30,45.12 13.33,45.14 13.16,44.99C12.99,44.85 13.01,44.88 12.89,44.68C12.78,44.49 12.79,44.53 12.74,44.31C12.68,44.09 12.69,44.13 12.70,43.90C12.72,43.68 13.05,43.07 12.80,43.51Z" fill="#C6551F"/><path d="M55.53,2.18C55.63,2.46 55.72,2.67 55.95,3.29C56.18,3.92 56.13,3.79 56.35,4.42C56.57,5.05 56.52,4.91 56.74,5.55C56.95,6.18 56.90,6.05 57.11,6.68C57.32,7.32 57.27,7.18 57.48,7.83C57.68,8.47 57.64,8.33 57.84,8.97C58.04,9.62 58.00,9.48 58.20,10.12C58.40,10.77 58.36,10.63 58.56,11.28C58.76,11.92 58.72,11.79 58.93,12.43C59.13,13.08 59.09,12.94 59.30,13.59C59.51,14.23 59.46,14.10 59.68,14.74C59.90,15.38 59.85,15.25 60.08,15.89C60.31,16.53 60.26,16.40 60.49,17.03C60.73,17.67 60.68,17.54 60.92,18.17C61.17,18.81 61.12,18.67 61.38,19.30C61.64,19.93 61.58,19.80 61.85,20.42C62.13,21.04 62.07,20.91 62.36,21.52C62.65,22.14 62.58,22.01 62.89,22.61C63.20,23.22 63.13,23.09 63.46,23.69C63.78,24.28 63.71,24.16 64.06,24.74C64.40,25.32 64.33,25.20 64.69,25.77C65.05,26.34 64.97,26.22 65.34,26.79C65.71,27.36 65.63,27.24 66.01,27.80C66.38,28.36 66.30,28.24 66.68,28.80C67.07,29.36 66.98,29.24 67.37,29.80C67.76,30.35 67.68,30.23 68.07,30.78C68.47,31.33 68.38,31.21 68.78,31.76C69.18,32.31 69.10,32.19 69.50,32.73C69.91,33.27 69.82,33.16 70.23,33.70C70.64,34.23 70.71,34.56 70.97,34.65C71.23,34.74 71.12,34.43 71.16,34.01C71.21,33.59 71.32,33.15 71.12,33.15C70.93,33.15 70.85,33.50 70.46,34.00C70.06,34.50 70.09,34.46 69.72,34.93C69.36,35.41 68.16,34.61 69.15,35.69C70.14,36.77 71.95,38.14 73.25,38.79C74.55,39.45 73.47,38.44 73.80,38.04C74.12,37.63 74.05,37.71 74.42,37.34C74.78,36.98 74.70,37.05 75.10,36.72C75.50,36.39 75.42,36.46 75.85,36.17C76.28,35.89 76.19,35.94 76.65,35.71C77.11,35.48 77.01,35.52 77.49,35.34C77.97,35.16 77.87,35.19 78.37,35.07C78.87,34.95 78.76,34.97 79.27,34.91C79.78,34.84 79.67,34.85 80.18,34.85C80.69,34.85 80.58,34.84 81.08,34.91C81.59,34.97 81.48,34.95 81.97,35.08C82.46,35.20 82.36,35.17 82.82,35.36C83.28,35.55 83.19,35.51 83.62,35.76C84.05,36.00 83.96,35.95 84.35,36.25C84.73,36.56 84.66,36.49 84.99,36.84C85.33,37.19 85.26,37.12 85.55,37.51C85.84,37.89 85.78,37.81 86.02,38.22C86.26,38.64 86.22,38.55 86.40,38.99C86.58,39.44 86.56,39.34 86.68,39.81C86.80,40.28 86.78,40.18 86.83,40.66C86.88,41.15 86.88,41.05 86.85,41.54C86.82,42.03 86.84,41.93 86.73,42.42C86.62,42.90 86.65,42.81 86.45,43.27C86.25,43.73 86.30,43.65 86.01,44.07C85.71,44.49 85.78,44.42 85.40,44.78C85.02,45.13 85.11,45.08 84.65,45.35C84.20,45.62 84.29,45.58 83.78,45.75C83.26,45.91 83.36,45.89 82.82,45.92C82.27,45.96 82.37,45.97 81.83,45.86C81.29,45.74 81.38,45.78 80.89,45.52C80.40,45.26 80.47,45.32 80.07,44.93C79.67,44.54 79.73,44.64 79.47,44.12C79.21,43.60 79.23,43.32 79.14,43.07C79.06,42.83 79.17,43.15 79.17,43.24C79.17,43.34 79.17,43.32 79.14,43.41C79.11,43.50 79.11,43.49 79.06,43.56C79.00,43.64 79.01,43.63 78.93,43.68C78.85,43.74 78.87,43.73 78.78,43.76C78.69,43.79 78.70,43.78 78.61,43.78C78.51,43.78 78.53,43.78 78.44,43.75C78.35,43.72 78.36,43.73 78.29,43.67C78.21,43.61 78.22,43.62 78.17,43.55C78.11,43.47 78.01,43.09 78.09,43.39C78.17,43.69 78.15,43.94 78.45,44.60C78.75,45.26 78.69,45.17 79.17,45.75C79.66,46.32 79.55,46.23 80.17,46.66C80.79,47.10 80.67,47.03 81.38,47.31C82.10,47.58 81.96,47.55 82.72,47.65C83.49,47.75 83.34,47.75 84.13,47.67C84.91,47.60 84.76,47.63 85.52,47.39C86.27,47.15 86.13,47.21 86.83,46.81C87.53,46.41 87.40,46.50 88.01,45.96C88.62,45.42 88.52,45.54 89.02,44.89C89.52,44.23 89.43,44.37 89.80,43.63C90.17,42.88 90.11,43.04 90.34,42.23C90.57,41.43 90.54,41.59 90.62,40.75C90.70,39.92 90.70,40.08 90.63,39.24C90.56,38.40 90.59,38.57 90.37,37.75C90.16,36.93 90.22,37.09 89.87,36.32C89.53,35.56 89.61,35.70 89.14,35.01C88.67,34.31 88.77,34.44 88.20,33.83C87.63,33.22 87.75,33.34 87.10,32.81C86.46,32.29 86.60,32.39 85.89,31.96C85.18,31.53 85.33,31.61 84.58,31.28C83.82,30.94 83.98,31.00 83.19,30.77C82.41,30.54 82.57,30.58 81.76,30.44C80.96,30.30 81.13,30.32 80.31,30.29C79.50,30.25 79.66,30.25 78.85,30.30C78.04,30.36 78.21,30.34 77.41,30.49C76.61,30.64 76.78,30.60 76.00,30.84C75.22,31.08 75.38,31.02 74.64,31.34C73.90,31.66 74.05,31.59 73.34,31.98C72.64,32.38 72.78,32.29 72.12,32.76C71.47,33.23 71.60,33.12 70.99,33.66C70.39,34.19 70.51,34.07 69.96,34.66C69.41,35.25 68.22,34.42 69.04,35.76C69.85,37.09 71.52,38.70 72.86,39.43C74.20,40.16 73.33,38.92 73.81,38.37C74.30,37.83 74.15,38.01 74.61,37.49C75.07,36.98 74.87,37.55 75.46,36.53C76.06,35.51 76.72,35.31 76.73,33.85C76.75,32.39 76.04,32.29 75.51,31.30C74.98,30.32 75.22,30.88 74.85,30.35C74.48,29.81 74.56,29.92 74.20,29.38C73.83,28.85 73.91,28.96 73.55,28.42C73.19,27.88 73.26,27.99 72.91,27.45C72.55,26.91 72.62,27.03 72.27,26.48C71.91,25.94 71.99,26.05 71.64,25.51C71.28,24.96 71.36,25.08 71.01,24.53C70.66,23.98 70.73,24.10 70.38,23.55C70.04,23.00 70.11,23.12 69.76,22.57C69.42,22.02 69.50,22.14 69.14,21.59C68.79,21.04 68.87,21.16 68.50,20.62C68.14,20.08 68.22,20.20 67.85,19.66C67.47,19.13 67.55,19.24 67.17,18.71C66.80,18.18 66.88,18.29 66.49,17.76C66.11,17.23 66.19,17.35 65.80,16.82C65.41,16.29 65.49,16.41 65.10,15.88C64.71,15.35 64.79,15.46 64.40,14.93C64.01,14.40 64.09,14.52 63.70,13.98C63.31,13.45 63.39,13.57 63.00,13.03C62.61,12.50 62.70,12.61 62.31,12.07C61.93,11.53 62.01,11.65 61.63,11.10C61.25,10.56 61.33,10.68 60.96,10.13C60.59,9.58 60.67,9.69 60.31,9.14C59.95,8.58 60.02,8.70 59.67,8.14C59.32,7.57 59.40,7.69 59.06,7.12C58.73,6.55 58.80,6.67 58.48,6.09C58.16,5.51 58.22,5.64 57.92,5.05C57.62,4.46 57.68,4.59 57.40,3.99C57.12,3.39 57.17,3.52 56.91,2.91C56.65,2.31 56.58,2.08 56.47,1.82C56.35,1.55 56.49,1.88 56.50,1.97C56.50,2.06 56.51,2.04 56.48,2.13C56.46,2.21 56.47,2.20 56.42,2.27C56.37,2.34 56.38,2.33 56.32,2.39C56.25,2.44 56.26,2.43 56.18,2.47C56.10,2.50 56.12,2.49 56.03,2.50C55.94,2.50 55.96,2.51 55.87,2.48C55.79,2.46 55.80,2.47 55.73,2.42C55.66,2.37 55.67,2.38 55.61,2.32C55.56,2.25 55.44,1.91 55.53,2.18Z" fill="#D9436B"/><path d="M55.55,1.79C55.41,2.04 55.33,2.26 55.03,2.86C54.73,3.45 54.79,3.32 54.47,3.90C54.14,4.48 54.22,4.36 53.87,4.92C53.53,5.49 53.60,5.37 53.24,5.93C52.88,6.49 52.96,6.37 52.58,6.91C52.20,7.46 52.28,7.34 51.89,7.88C51.50,8.42 51.58,8.30 51.18,8.83C50.78,9.36 50.86,9.25 50.45,9.77C50.03,10.29 50.12,10.17 49.70,10.69C49.27,11.20 49.37,11.09 48.93,11.59C48.50,12.10 48.60,11.99 48.16,12.49C47.72,12.99 47.82,12.88 47.38,13.38C46.94,13.87 47.03,13.76 46.59,14.25C46.15,14.74 46.24,14.64 45.80,15.13C45.35,15.61 45.45,15.51 45.01,16.00C44.56,16.48 44.66,16.38 44.22,16.86C43.78,17.35 43.87,17.25 43.43,17.73C43.00,18.22 43.09,18.11 42.66,18.60C42.22,19.09 42.32,18.99 41.89,19.48C41.46,19.97 41.55,19.87 41.13,20.37C40.72,20.86 40.81,20.76 40.39,21.26C39.98,21.77 40.07,21.66 39.66,22.17C39.25,22.67 39.34,22.56 38.93,23.07C38.52,23.57 38.61,23.46 38.19,23.97C37.77,24.47 37.86,24.36 37.45,24.86C37.03,25.36 37.12,25.25 36.69,25.75C36.27,26.25 36.36,26.14 35.94,26.63C35.51,27.13 35.60,27.02 35.18,27.51C34.75,28.01 34.84,27.90 34.41,28.39C33.98,28.88 34.07,28.78 33.63,29.26C33.20,29.75 33.29,29.64 32.85,30.13C32.41,30.61 32.70,30.17 32.06,30.99C31.42,31.81 30.79,31.61 30.57,33.05C30.35,34.48 30.78,34.91 31.26,36.10C31.75,37.30 31.78,36.72 32.29,37.31C32.80,37.89 32.62,37.67 33.09,38.20C33.55,38.72 32.57,39.80 33.97,39.18C35.37,38.56 37.19,37.21 38.08,35.99C38.98,34.78 37.70,35.46 37.16,34.85C36.61,34.25 36.74,34.37 36.14,33.83C35.54,33.28 35.67,33.39 35.02,32.91C34.37,32.43 34.51,32.52 33.81,32.11C33.12,31.70 33.27,31.78 32.53,31.45C31.79,31.11 31.95,31.17 31.17,30.92C30.40,30.67 30.56,30.72 29.76,30.55C28.97,30.39 29.13,30.41 28.32,30.34C27.51,30.27 27.68,30.27 26.86,30.30C26.04,30.32 26.21,30.31 25.40,30.43C24.59,30.55 24.75,30.52 23.96,30.74C23.17,30.96 23.33,30.90 22.57,31.23C21.80,31.55 21.96,31.47 21.24,31.89C20.52,32.31 20.66,32.21 20.00,32.73C19.35,33.25 19.47,33.13 18.89,33.74C18.32,34.35 18.42,34.22 17.95,34.91C17.47,35.61 17.56,35.46 17.20,36.23C16.85,37.00 16.91,36.84 16.69,37.66C16.47,38.47 16.50,38.31 16.43,39.15C16.35,39.99 16.35,39.82 16.42,40.66C16.50,41.50 16.46,41.33 16.69,42.14C16.91,42.95 16.85,42.79 17.21,43.54C17.57,44.28 17.49,44.15 17.98,44.81C18.47,45.46 18.36,45.35 18.97,45.89C19.57,46.44 19.45,46.34 20.14,46.75C20.84,47.16 20.69,47.10 21.45,47.35C22.20,47.60 22.06,47.57 22.84,47.65C23.62,47.73 23.47,47.73 24.24,47.63C25.01,47.54 24.87,47.58 25.59,47.31C26.31,47.03 26.18,47.10 26.81,46.67C27.43,46.23 27.33,46.33 27.82,45.75C28.30,45.18 28.24,45.27 28.55,44.61C28.85,43.95 28.83,43.69 28.91,43.39C28.99,43.09 28.89,43.47 28.83,43.55C28.78,43.62 28.79,43.61 28.71,43.67C28.64,43.73 28.65,43.72 28.56,43.75C28.47,43.78 28.49,43.78 28.39,43.78C28.30,43.78 28.31,43.79 28.22,43.76C28.13,43.73 28.15,43.74 28.07,43.68C27.99,43.63 28.00,43.64 27.94,43.56C27.89,43.49 27.89,43.50 27.86,43.41C27.83,43.32 27.83,43.34 27.83,43.24C27.83,43.15 27.94,42.82 27.86,43.07C27.77,43.32 27.79,43.60 27.53,44.12C27.27,44.65 27.32,44.54 26.92,44.94C26.52,45.34 26.60,45.28 26.10,45.54C25.61,45.80 25.70,45.76 25.15,45.87C24.61,45.99 24.71,45.97 24.16,45.94C23.61,45.91 23.71,45.92 23.19,45.76C22.67,45.60 22.77,45.64 22.31,45.36C21.85,45.09 21.93,45.14 21.55,44.78C21.17,44.42 21.24,44.49 20.94,44.07C20.65,43.64 20.70,43.72 20.50,43.25C20.29,42.79 20.33,42.88 20.22,42.39C20.10,41.90 20.12,41.99 20.10,41.50C20.07,41.00 20.07,41.10 20.13,40.61C20.18,40.12 20.17,40.22 20.29,39.75C20.42,39.28 20.39,39.37 20.59,38.92C20.78,38.48 20.73,38.57 20.98,38.15C21.23,37.74 21.18,37.82 21.48,37.44C21.78,37.05 21.71,37.13 22.06,36.78C22.40,36.44 22.32,36.50 22.71,36.20C23.10,35.90 23.02,35.95 23.45,35.71C23.89,35.46 23.79,35.51 24.26,35.32C24.73,35.13 24.63,35.17 25.12,35.04C25.61,34.92 25.51,34.94 26.01,34.88C26.52,34.82 26.41,34.83 26.93,34.83C27.44,34.84 27.33,34.83 27.84,34.90C28.35,34.97 28.25,34.95 28.75,35.07C29.25,35.20 29.15,35.17 29.63,35.36C30.11,35.54 30.02,35.50 30.48,35.74C30.94,35.98 30.84,35.93 31.28,36.22C31.71,36.51 31.62,36.44 32.02,36.78C32.42,37.11 32.34,37.04 32.71,37.42C33.07,37.79 33.00,37.72 33.32,38.12C33.64,38.53 32.61,39.56 33.85,38.87C35.10,38.17 36.86,36.78 37.77,35.64C38.69,34.51 37.51,35.30 37.12,34.80C36.73,34.31 36.73,34.30 36.38,33.87C36.03,33.43 36.02,33.07 35.87,33.25C35.73,33.43 35.82,34.06 35.86,34.52C35.91,34.98 35.75,35.02 36.04,34.88C36.34,34.74 36.43,34.51 36.91,34.03C37.40,33.55 37.29,33.66 37.77,33.17C38.25,32.69 38.15,32.79 38.63,32.31C39.10,31.82 39.00,31.92 39.47,31.43C39.94,30.93 39.84,31.04 40.31,30.54C40.77,30.04 40.67,30.15 41.13,29.64C41.59,29.14 41.49,29.25 41.94,28.74C42.39,28.23 42.30,28.34 42.74,27.82C43.19,27.30 43.10,27.41 43.54,26.89C43.97,26.37 43.88,26.48 44.31,25.95C44.75,25.43 44.66,25.54 45.08,25.00C45.50,24.47 45.41,24.58 45.82,24.03C46.22,23.48 46.14,23.60 46.52,23.03C46.91,22.47 46.83,22.59 47.19,22.01C47.56,21.44 47.49,21.56 47.84,20.97C48.19,20.39 48.12,20.51 48.46,19.92C48.80,19.32 48.72,19.45 49.05,18.84C49.38,18.24 49.31,18.37 49.62,17.76C49.93,17.15 49.87,17.28 50.17,16.66C50.47,16.04 50.41,16.18 50.70,15.56C50.99,14.94 50.93,15.07 51.21,14.44C51.49,13.82 51.43,13.95 51.71,13.33C51.98,12.70 51.93,12.83 52.20,12.21C52.47,11.58 52.41,11.71 52.67,11.08C52.94,10.46 52.88,10.59 53.14,9.96C53.40,9.34 53.35,9.47 53.61,8.84C53.87,8.22 53.81,8.35 54.07,7.72C54.33,7.10 54.27,7.23 54.53,6.61C54.80,5.99 54.74,6.12 55.00,5.50C55.27,4.88 55.21,5.01 55.48,4.40C55.74,3.78 55.69,3.91 55.96,3.30C56.23,2.69 56.34,2.48 56.45,2.21C56.57,1.94 56.42,2.28 56.36,2.34C56.31,2.41 56.32,2.40 56.24,2.44C56.17,2.48 56.18,2.47 56.09,2.49C56.01,2.51 56.02,2.51 55.94,2.50C55.85,2.49 55.87,2.49 55.79,2.45C55.71,2.42 55.72,2.42 55.66,2.36C55.59,2.31 55.60,2.32 55.56,2.24C55.52,2.17 55.53,2.18 55.51,2.09C55.49,2.01 55.49,2.02 55.50,1.94C55.51,1.85 55.68,1.53 55.55,1.79Z" fill="#D9436B"/></g></svg>